Coordinates
version=1
nRows=5
nColumns=46
inDegrees=yes

Units are S.I. units (second, meters, Newtons, ...)
Angles are in degrees.

endheader
time	pelvis_tilt	pelvis_list	pelvis_rotation	pelvis_tx	pelvis_ty	pelvis_tz	bb_angle	bb_tx	bb_ty	bb_tz	hip_flexion_r	hip_adduction_r	hip_rotation_r	knee_angle_r	knee_angle_r_beta	ankle_angle_r	subtalar_angle_r	mtp_angle_r	crank_angle_r	hip_flexion_l	hip_adduction_l	hip_rotation_l	knee_angle_l	knee_angle_l_beta	ankle_angle_l	subtalar_angle_l	mtp_angle_l	crank_angle_l	lumbar_extension	lumbar_bending	lumbar_rotation	arm_flex_r	arm_add_r	arm_rot_r	elbow_flex_r	pro_sup_r	wrist_flex_r	wrist_dev_r	arm_flex_l	arm_add_l	arm_rot_l	elbow_flex_l	pro_sup_l	wrist_flex_l	wrist_dev_l
      0.00500000	    -16.39166529	      3.63450566	      0.97398131	      0.10805348	      1.07528740	     -0.25926873	      0.00000000	      0.50000000	      0.00000000	      0.25000000	     43.33824834	     -8.32723375	     -2.32519079	     47.19235248	      0.82366193	      5.38140646	     -8.87658920	      0.00000000	      0.00000000	     93.53577795	     -2.57927746	     -0.99725322	    108.11800987	      1.88701525	     20.92645209	     -8.51727576	      0.00000000	      0.00000000	    -50.89076894	     -0.84153249	     -3.21600458	     89.52953534	     -7.83120660	     39.93543802	     27.86180930	     27.01009541	      0.00000000	      0.00000000	     89.38103341	     -6.93533126	     42.32124034	     28.70931128	     27.63313488	      0.00000000	      0.00000000
      0.01000000	    -16.44983960	      3.58933664	      1.01387524	      0.10805764	      1.07516393	     -0.25940193	      0.00000000	      0.50000000	      0.00000000	      0.25000000	     43.40436990	     -8.32349318	     -2.38630650	     47.23173151	      0.82434923	      5.35181267	     -8.89950357	      0.00000000	      0.00000000	     93.61628571	     -2.51976473	     -0.95095295	    108.10120660	      1.88672198	     20.87570909	     -8.59917587	      0.00000000	      0.00000000	    -50.83291579	     -0.78298400	     -3.22081086	     89.53031634	     -7.52300693	     38.75419632	     27.49577029	     27.92408036	      0.00000000	      0.00000000	     89.35945780	     -6.63779758	     40.99069800	     28.45777903	     28.48454304	      0.00000000	      0.00000000
      0.01500000	    -16.44829834	      3.53290508	      0.98643487	      0.10811597	      1.07504072	     -0.25945769	      0.00000000	      0.50000000	      0.00000000	      0.25000000	     43.41535964	     -8.26386966	     -2.40112517	     47.27885625	      0.82517171	      5.38320973	     -8.93250712	      0.00000000	      0.00000000	     93.64099231	     -2.54793482	     -0.88714500	    108.12787095	      1.88718736	     20.90969577	     -8.52905610	      0.00000000	      0.00000000	    -50.81778212	     -0.75884246	     -3.10144663	     89.53090178	     -7.96071168	     39.61838053	     27.38854659	     30.52796742	      0.00000000	      0.00000000	     89.38267690	     -6.82846690	     41.90755259	     28.06477674	     31.17390188	      0.00000000	      0.00000000
      0.02000000	    -16.43667021	      3.46434078	      0.98285157	      0.10828470	      1.07499020	     -0.25950866	      0.00000000	      0.50000000	      0.00000000	      0.25000000	     43.38390520	     -8.19696362	     -2.41338307	     47.30096272	      0.82555754	      5.37907424	     -8.95428590	      0.00000000	      0.00000000	     93.66988674	     -2.54676197	     -0.82812817	    108.14172205	      1.88742911	     20.83149722	     -8.61890971	      0.00000000	      0.00000000	    -50.81411500	     -0.69073747	     -3.09654092	     89.53057581	     -7.73209863	     39.09553004	     27.18136182	     30.64789290	      0.00000000	      0.00000000	     89.38456626	     -6.67565678	     41.19687756	     27.96928246	     31.30695600	      0.00000000	      0.00000000
      0.02500000	    -16.46548160	      3.48634436	      0.98837508	      0.10826410	      1.07495344	     -0.25961897	      0.00000000	      0.50000000	      0.00000000	      0.25000000	     43.43420913	     -8.22527665	     -2.38777679	     47.33944509	      0.82622918	      5.38765769	     -8.93501111	      0.00000000	      0.00000000	     93.52528267	     -2.51333229	     -0.88885554	    107.85978583	      1.88250839	     20.73869274	     -8.85589930	      0.00000000	      0.00000000	    -50.82116975	     -0.72401194	     -3.09170182	     89.54274896	     -7.79229185	     38.80503973	     27.24921116	     31.03599008	      0.00000000	      0.00000000	     89.40435613	     -6.51008913	     40.78712886	     27.80625167	     31.68620105	      0.00000000	      0.00000000
